<?xml version="1.0" encoding="UTF-8"?>
<svg width="24px" height="24px" viewBox="0 0 24 24" version="1.1" xmlns="http://www.w3.org/2000/svg" xmlns:xlink="http://www.w3.org/1999/xlink">
    <!-- Generator: Sketch 51.2 (57519) - http://www.bohemiancoding.com/sketch -->
    <title>clone</title>
    <desc>Created with Sketch.</desc>
    <defs></defs>
    <g id="Arbetsprov" stroke="none" stroke-width="1" fill="none" fill-rule="evenodd" opacity="0.25">
        <g id="Desktop-HD" transform="translate(-1038.000000, -900.000000)" fill="#000000" fill-rule="nonzero">
            <g id="clone" transform="translate(1038.000000, 900.000000)">
                <path d="M21.75,0 L6.75,0 C5.50734375,0 4.5,1.00734375 4.5,2.25 L4.5,4.5 L2.25,4.5 C1.00734375,4.5 0,5.50734375 0,6.75 L0,21.75 C0,22.9926562 1.00734375,24 2.25,24 L17.25,24 C18.4926562,24 19.5,22.9926562 19.5,21.75 L19.5,19.5 L21.75,19.5 C22.9926562,19.5 24,18.4926562 24,17.25 L24,2.25 C24,1.00734375 22.9926562,0 21.75,0 Z M16.96875,21.75 L2.53125,21.75 C2.37591991,21.75 2.25,21.6240801 2.25,21.46875 L2.25,7.03125 C2.25,6.87591991 2.37591991,6.75 2.53125,6.75 L4.5,6.75 L4.5,17.25 C4.5,18.4926562 5.50734375,19.5 6.75,19.5 L17.25,19.5 L17.25,21.46875 C17.25,21.6240801 17.1240801,21.75 16.96875,21.75 Z M21.46875,17.25 L7.03125,17.25 C6.87591991,17.25 6.75,17.1240801 6.75,16.96875 L6.75,2.53125 C6.75,2.37591991 6.87591991,2.25 7.03125,2.25 L21.46875,2.25 C21.6240801,2.25 21.75,2.37591991 21.75,2.53125 L21.75,16.96875 C21.75,17.1240801 21.6240801,17.25 21.46875,17.25 Z" id="Shape"></path>
            </g>
        </g>
    </g>
</svg>