<?xml version="1.0" encoding="UTF-8"?>
<svg width="24px" height="24px" viewBox="0 0 24 24" version="1.1" xmlns="http://www.w3.org/2000/svg" xmlns:xlink="http://www.w3.org/1999/xlink">
    <!-- Generator: Sketch 51.2 (57519) - http://www.bohemiancoding.com/sketch -->
    <title>arrow-alt-circle-up</title>
    <desc>Created with Sketch.</desc>
    <defs></defs>
    <g id="Arbetsprov" stroke="none" stroke-width="1" fill="none" fill-rule="evenodd" opacity="0.25">
        <g id="Desktop-HD" transform="translate(-1038.000000, -804.000000)" fill="#000000" fill-rule="nonzero">
            <g id="arrow-alt-circle-up" transform="translate(1038.000000, 804.000000)">
                <path d="M12,24 C18.6290323,24 24,18.6290323 24,12 C24,5.37096774 18.6290323,0 12,0 C5.37096774,0 0,5.37096774 0,12 C0,18.6290323 5.37096774,24 12,24 Z M12,2.32258065 C17.3467742,2.32258065 21.6774194,6.65322581 21.6774194,12 C21.6774194,17.3467742 17.3467742,21.6774194 12,21.6774194 C6.65322581,21.6774194 2.32258065,17.3467742 2.32258065,12 C2.32258065,6.65322581 6.65322581,2.32258065 12,2.32258065 Z M12.9677419,18.1935484 L11.0322581,18.1935484 C10.7129032,18.1935484 10.4516129,17.9322581 10.4516129,17.6129032 L10.4516129,12 L7.20967742,12 C6.69193548,12 6.43548387,11.3758065 6.7983871,11.0080645 L11.5887097,6.21774194 C11.816129,5.99032258 12.183871,5.99032258 12.4112903,6.21774194 L17.2016129,11.0080645 C17.5693548,11.3758065 17.3080645,12 16.7903226,12 L13.5483871,12 L13.5483871,17.6129032 C13.5483871,17.9322581 13.2870968,18.1935484 12.9677419,18.1935484 Z" id="Shape"></path>
            </g>
        </g>
    </g>
</svg>