<?xml version="1.0" encoding="UTF-8"?>
<svg width="21px" height="24px" viewBox="0 0 21 24" version="1.1" xmlns="http://www.w3.org/2000/svg" xmlns:xlink="http://www.w3.org/1999/xlink">
    <!-- Generator: Sketch 51.2 (57519) - http://www.bohemiancoding.com/sketch -->
    <title>calendar-check</title>
    <desc>Created with Sketch.</desc>
    <defs></defs>
    <g id="Arbetsprov" stroke="none" stroke-width="1" fill="none" fill-rule="evenodd" opacity="0.25">
        <g id="Desktop-HD" transform="translate(-1038.000000, -852.000000)" fill="#000000" fill-rule="nonzero">
            <g id="calendar-check" transform="translate(1038.000000, 852.000000)">
                <path d="M18.75,3 L16.5,3 L16.5,0.5625 C16.5,0.251859375 16.2481406,0 15.9375,0 L14.0625,0 C13.7518594,0 13.5,0.251859375 13.5,0.5625 L13.5,3 L7.5,3 L7.5,0.5625 C7.5,0.251859375 7.24814062,0 6.9375,0 L5.0625,0 C4.75185937,0 4.5,0.251859375 4.5,0.5625 L4.5,3 L2.25,3 C1.00734375,3 0,4.00734375 0,5.25 L0,21.75 C0,22.9926562 1.00734375,24 2.25,24 L18.75,24 C19.9926562,24 21,22.9926562 21,21.75 L21,5.25 C21,4.00734375 19.9926562,3 18.75,3 Z M18.46875,21.75 L2.53125,21.75 C2.37591991,21.75 2.25,21.6240801 2.25,21.46875 L2.25,7.5 L18.75,7.5 L18.75,21.46875 C18.75,21.6240801 18.6240801,21.75 18.46875,21.75 Z M15.9914531,12.3445313 L9.32071875,18.9618281 C9.10017187,19.1805937 8.74401562,19.1791875 8.52520312,18.9586406 L5.0053125,15.41025 C4.78654687,15.1897031 4.78795312,14.8335469 5.0085,14.6147344 L6.07345312,13.5583594 C6.294,13.3395938 6.65015625,13.341 6.86892187,13.5615938 L8.93629688,15.6457031 L14.1427969,10.4809688 C14.3633438,10.2622031 14.7195,10.2636094 14.9383125,10.4841563 L15.9946875,11.5490625 C16.2134531,11.7696094 16.212,12.1257656 15.9914531,12.3445313 Z" id="Shape"></path>
            </g>
        </g>
    </g>
</svg>